<?xml version="1.0" standalone="no"?>
<!DOCTYPE svg PUBLIC "-//W3C//DTD SVG 20010904//EN"
 "http://www.w3.org/TR/2001/REC-SVG-20010904/DTD/svg10.dtd">
<svg version="1.0" xmlns="http://www.w3.org/2000/svg"
 width="512.000000pt" height="512.000000pt" viewBox="0 0 512.000000 512.000000"
 preserveAspectRatio="xMidYMid meet">

<g transform="translate(0.000000,512.000000) scale(0.100000,-0.100000)"
fill="#000000" stroke="none">
<path d="M748 5069 c-318 -41 -586 -279 -669 -594 -29 -111 -29 -279 0 -390
38 -143 100 -255 198 -356 l54 -55 -50 -105 c-137 -294 -220 -565 -263 -864
-16 -114 -16 -449 1 -575 74 -552 314 -1047 682 -1405 295 -287 638 -473 1075
-585 607 -156 1330 -118 1878 97 301 118 544 274 765 488 362 352 601 837 676
1371 37 260 28 604 -17 652 -29 30 -72 29 -104 -3 -23 -23 -24 -28 -17 -92 12
-101 8 -405 -6 -513 -66 -504 -300 -984 -639 -1312 -361 -349 -818 -547 -1427
-620 -129 -15 -521 -15 -650 0 -436 52 -767 159 -1078 348 -420 256 -739 675
-898 1179 -183 582 -130 1169 161 1772 178 370 444 701 699 873 147 98 265
145 502 196 216 46 367 57 556 37 193 -19 573 -19 766 0 185 19 336 10 540
-33 329 -70 499 -158 722 -372 290 -279 504 -633 646 -1071 21 -66 46 -128 55
-138 26 -29 78 -25 103 7 12 15 21 33 21 42 0 51 -105 335 -194 526 l-46 99
53 56 c149 157 219 333 219 551 0 410 -295 739 -706 790 -232 29 -466 -52
-637 -220 -47 -47 -95 -97 -105 -113 l-19 -27 -120 24 c-188 38 -311 48 -455
36 -418 -33 -502 -33 -920 0 -144 12 -267 2 -455 -36 l-120 -24 -19 27 c-10
16 -58 66 -105 113 -131 129 -273 196 -461 219 -94 12 -97 12 -192 0z m271
-165 c96 -24 198 -82 279 -159 l76 -71 -65 -24 c-35 -12 -90 -37 -121 -53
l-56 -31 -39 26 c-82 54 -116 67 -207 81 -89 14 -224 -33 -301 -104 -143 -132
-169 -352 -60 -513 l24 -35 -71 -106 -70 -106 -25 22 c-45 43 -113 154 -138
226 -137 392 107 799 515 863 66 10 183 3 259 -16z m3401 4 c73 -17 201 -81
262 -132 163 -133 254 -363 228 -571 -18 -139 -91 -296 -174 -374 l-24 -23
-71 106 -71 105 25 36 c109 162 83 382 -60 514 -77 71 -212 118 -301 104 -90
-14 -125 -27 -207 -81 l-37 -25 -58 30 c-31 17 -86 41 -121 53 l-64 24 70 67
c166 158 385 219 603 167z m-3467 -405 c20 -9 37 -20 37 -24 0 -4 -15 -18 -32
-31 -53 -37 -149 -127 -228 -213 -41 -44 -78 -82 -82 -83 -16 -7 -40 72 -39
131 1 177 177 290 344 220z m3413 2 c85 -34 145 -127 145 -223 1 -59 -23 -137
-40 -130 -4 1 -37 35 -73 74 -72 79 -174 175 -230 218 -21 16 -38 32 -38 36 0
9 67 38 100 43 35 5 99 -3 136 -18z"/>
<path d="M1425 3536 c-43 -18 -92 -78 -105 -127 -30 -110 46 -219 163 -235 60
-9 141 29 176 82 49 71 36 191 -25 245 -55 48 -145 63 -209 35z"/>
<path d="M3535 3533 c-76 -40 -109 -99 -103 -184 5 -76 37 -121 106 -156 43
-21 61 -25 99 -19 117 16 193 125 163 235 -13 50 -63 109 -107 127 -43 18
-121 17 -158 -3z"/>
<path d="M2335 3335 c-360 -61 -577 -281 -665 -675 -35 -157 -45 -287 -45
-560 0 -328 18 -463 83 -649 39 -109 86 -182 162 -254 140 -131 318 -177 690
-177 372 0 550 46 690 177 125 117 190 272 231 548 18 120 19 584 1 725 -68
541 -287 801 -732 870 -90 14 -318 11 -415 -5z m455 -155 c112 -23 232 -79
303 -142 l49 -43 -194 -99 c-234 -119 -265 -130 -388 -130 -123 0 -154 11
-388 130 l-194 99 48 42 c165 146 465 202 764 143z m-837 -342 c29 -12 113
-55 188 -95 144 -77 218 -107 294 -119 l47 -7 -4 -181 c-3 -203 -12 -235 -85
-324 -65 -79 -154 -125 -275 -142 -69 -10 -98 -33 -98 -78 0 -44 36 -72 93
-72 65 0 157 24 230 62 57 28 181 139 206 183 l11 20 11 -20 c25 -44 149 -155
206 -183 73 -37 165 -62 229 -62 57 0 94 28 94 71 0 46 -28 69 -98 79 -125 17
-214 65 -281 149 -69 88 -81 136 -81 330 l0 169 45 7 c76 11 151 41 294 118
183 99 241 123 252 105 18 -27 69 -201 83 -280 57 -326 41 -827 -33 -1041 -68
-195 -173 -291 -368 -335 -113 -25 -593 -25 -706 0 -248 56 -358 197 -413 534
-14 84 -18 167 -19 364 0 276 12 417 50 565 24 93 63 205 71 205 3 0 29 -10
57 -22z"/>
</g>
</svg>
